<svg xmlns="http://www.w3.org/2000/svg" width="900" height="300" viewBox="0 0 900 300">
  <defs>
    <linearGradient id="bg" x1="0%" y1="0%" x2="100%" y2="100%">
      <stop offset="0%" style="stop-color:#0f0f0f;stop-opacity:1" />
      <stop offset="100%" style="stop-color:#1a1a2e;stop-opacity:1" />
    </linearGradient>
    <linearGradient id="accent" x1="0%" y1="0%" x2="100%" y2="0%">
      <stop offset="0%" style="stop-color:#e74c3c;stop-opacity:1" />
      <stop offset="100%" style="stop-color:#ff6b6b;stop-opacity:1" />
    </linearGradient>
    <filter id="glow">
      <feGaussianBlur stdDeviation="3" result="coloredBlur"/>
      <feMerge>
        <feMergeNode in="coloredBlur"/>
        <feMergeNode in="SourceGraphic"/>
      </feMerge>
    </filter>
  </defs>
  <rect width="900" height="300" rx="0" fill="url(#bg)"/>
  <!-- Grid pattern -->
  <g opacity="0.05" stroke="#ffffff" stroke-width="0.5">
    <line x1="0" y1="0" x2="0" y2="300"/><line x1="30" y1="0" x2="30" y2="300"/>
    <line x1="60" y1="0" x2="60" y2="300"/><line x1="90" y1="0" x2="90" y2="300"/>
    <line x1="120" y1="0" x2="120" y2="300"/><line x1="150" y1="0" x2="150" y2="300"/>
    <line x1="180" y1="0" x2="180" y2="300"/><line x1="210" y1="0" x2="210" y2="300"/>
    <line x1="240" y1="0" x2="240" y2="300"/><line x1="270" y1="0" x2="270" y2="300"/>
    <line x1="300" y1="0" x2="300" y2="300"/><line x1="330" y1="0" x2="330" y2="300"/>
    <line x1="360" y1="0" x2="360" y2="300"/><line x1="390" y1="0" x2="390" y2="300"/>
    <line x1="420" y1="0" x2="420" y2="300"/><line x1="450" y1="0" x2="450" y2="300"/>
    <line x1="480" y1="0" x2="480" y2="300"/><line x1="510" y1="0" x2="510" y2="300"/>
    <line x1="540" y1="0" x2="540" y2="300"/><line x1="570" y1="0" x2="570" y2="300"/>
    <line x1="600" y1="0" x2="600" y2="300"/><line x1="630" y1="0" x2="630" y2="300"/>
    <line x1="660" y1="0" x2="660" y2="300"/><line x1="690" y1="0" x2="690" y2="300"/>
    <line x1="720" y1="0" x2="720" y2="300"/><line x1="750" y1="0" x2="750" y2="300"/>
    <line x1="780" y1="0" x2="780" y2="300"/><line x1="810" y1="0" x2="810" y2="300"/>
    <line x1="840" y1="0" x2="840" y2="300"/><line x1="870" y1="0" x2="870" y2="300"/>
    <line x1="900" y1="0" x2="900" y2="300"/>
    <line x1="0" y1="0" x2="900" y2="0"/><line x1="0" y1="30" x2="900" y2="30"/>
    <line x1="0" y1="60" x2="900" y2="60"/><line x1="0" y1="90" x2="900" y2="90"/>
    <line x1="0" y1="120" x2="900" y2="120"/><line x1="0" y1="150" x2="900" y2="150"/>
    <line x1="0" y1="180" x2="900" y2="180"/><line x1="0" y1="210" x2="900" y2="210"/>
    <line x1="0" y1="240" x2="900" y2="240"/><line x1="0" y1="270" x2="900" y2="270"/>
    <line x1="0" y1="300" x2="900" y2="300"/>
  </g>
  <!-- Monkey icon -->
  <text x="310" y="135" font-family="monospace" font-size="72" fill="url(#accent)" filter="url(#glow)">🐒</text>
  <!-- Title -->
  <text x="380" y="125" font-family="ui-monospace, 'Cascadia Code', 'Fira Code', monospace" font-weight="800" font-size="52" fill="#ffffff" letter-spacing="-1">vuln-monkey</text>
  <!-- Tagline -->
  <text x="310" y="170" font-family="ui-monospace, 'Cascadia Code', 'Fira Code', monospace" font-size="16" fill="#888888">AI-powered API security fuzzer</text>
  <!-- Terminal preview -->
  <g transform="translate(200, 195)">
    <rect width="500" height="80" rx="6" fill="#1e1e2e" stroke="#333" stroke-width="1"/>
    <circle cx="16" cy="12" r="4" fill="#ff5f56"/><circle cx="30" cy="12" r="4" fill="#ffbd2e"/><circle cx="44" cy="12" r="4" fill="#27c93f"/>
    <text x="16" y="38" font-family="ui-monospace, 'Cascadia Code', monospace" font-size="12" fill="#6c6c8a">$</text>
    <text x="28" y="38" font-family="ui-monospace, 'Cascadia Code', monospace" font-size="12" fill="#cdd6f4"> vuln-monkey "curl https://api.example.com/users"</text>
    <text x="16" y="56" font-family="ui-monospace, 'Cascadia Code', monospace" font-size="11" fill="#f38ba8">  CRITICAL </text>
    <text x="100" y="56" font-family="ui-monospace, 'Cascadia Code', monospace" font-size="11" fill="#a6adc8">IDOR - Access another user's data</text>
    <text x="16" y="70" font-family="ui-monospace, 'Cascadia Code', monospace" font-size="11" fill="#fab387">  HIGH     </text>
    <text x="100" y="70" font-family="ui-monospace, 'Cascadia Code', monospace" font-size="11" fill="#a6adc8">Auth bypass - Missing token validation</text>
  </g>
</svg>
